<mxfile host="Electron" modified="2023-04-30T13:21:07.632Z" agent="Mozilla/5.0 (Windows NT 10.0; Win64; x64) AppleWebKit/537.36 (KHTML, like Gecko) draw.io/21.2.1 Chrome/112.0.5615.87 Electron/24.1.2 Safari/537.36" etag="rOIkg_WZWTdgMC82y4sB" version="21.2.1" type="device">
  <diagram id="C5RBs43oDa-KdzZeNtuy" name="Page-1">
    <mxGraphModel dx="1098" dy="820" grid="1" gridSize="10" guides="1" tooltips="1" connect="1" arrows="1" fold="1" page="1" pageScale="1" pageWidth="827" pageHeight="1169" math="0" shadow="0">
      <root>
        <mxCell id="WIyWlLk6GJQsqaUBKTNV-0" />
        <mxCell id="WIyWlLk6GJQsqaUBKTNV-1" parent="WIyWlLk6GJQsqaUBKTNV-0" />
        <mxCell id="S8cyLzOC5wXzLLrWG8NB-2" value="" style="edgeStyle=orthogonalEdgeStyle;rounded=0;orthogonalLoop=1;jettySize=auto;html=1;" edge="1" parent="WIyWlLk6GJQsqaUBKTNV-1" source="S8cyLzOC5wXzLLrWG8NB-0" target="S8cyLzOC5wXzLLrWG8NB-1">
          <mxGeometry relative="1" as="geometry" />
        </mxCell>
        <mxCell id="S8cyLzOC5wXzLLrWG8NB-0" value="Start programu" style="rounded=1;whiteSpace=wrap;html=1;absoluteArcSize=1;arcSize=14;strokeWidth=2;" vertex="1" parent="WIyWlLk6GJQsqaUBKTNV-1">
          <mxGeometry x="364" y="30" width="100" height="50" as="geometry" />
        </mxCell>
        <mxCell id="S8cyLzOC5wXzLLrWG8NB-4" value="" style="edgeStyle=orthogonalEdgeStyle;rounded=0;orthogonalLoop=1;jettySize=auto;html=1;" edge="1" parent="WIyWlLk6GJQsqaUBKTNV-1" source="S8cyLzOC5wXzLLrWG8NB-1" target="S8cyLzOC5wXzLLrWG8NB-3">
          <mxGeometry relative="1" as="geometry" />
        </mxCell>
        <mxCell id="S8cyLzOC5wXzLLrWG8NB-1" value="&lt;ul&gt;&lt;li&gt;Import knihoven&lt;/li&gt;&lt;li&gt;Nastavení hlavních proměnných&lt;/li&gt;&lt;li&gt;Nastavení času, ...&lt;/li&gt;&lt;/ul&gt;" style="rounded=1;whiteSpace=wrap;html=1;absoluteArcSize=1;arcSize=14;strokeWidth=2;" vertex="1" parent="WIyWlLk6GJQsqaUBKTNV-1">
          <mxGeometry x="331" y="120" width="166" height="80" as="geometry" />
        </mxCell>
        <mxCell id="S8cyLzOC5wXzLLrWG8NB-8" value="" style="edgeStyle=orthogonalEdgeStyle;rounded=0;orthogonalLoop=1;jettySize=auto;html=1;" edge="1" parent="WIyWlLk6GJQsqaUBKTNV-1" source="S8cyLzOC5wXzLLrWG8NB-3" target="S8cyLzOC5wXzLLrWG8NB-7">
          <mxGeometry relative="1" as="geometry" />
        </mxCell>
        <mxCell id="S8cyLzOC5wXzLLrWG8NB-3" value="Nekonečná&lt;br&gt;smyčka" style="rhombus;whiteSpace=wrap;html=1;rounded=1;arcSize=14;strokeWidth=2;" vertex="1" parent="WIyWlLk6GJQsqaUBKTNV-1">
          <mxGeometry x="374" y="230" width="80" height="80" as="geometry" />
        </mxCell>
        <mxCell id="S8cyLzOC5wXzLLrWG8NB-10" value="ANO" style="edgeStyle=orthogonalEdgeStyle;rounded=0;orthogonalLoop=1;jettySize=auto;html=1;" edge="1" parent="WIyWlLk6GJQsqaUBKTNV-1" source="S8cyLzOC5wXzLLrWG8NB-7" target="S8cyLzOC5wXzLLrWG8NB-9">
          <mxGeometry relative="1" as="geometry" />
        </mxCell>
        <mxCell id="S8cyLzOC5wXzLLrWG8NB-12" value="NE" style="edgeStyle=orthogonalEdgeStyle;rounded=0;orthogonalLoop=1;jettySize=auto;html=1;" edge="1" parent="WIyWlLk6GJQsqaUBKTNV-1" source="S8cyLzOC5wXzLLrWG8NB-7" target="S8cyLzOC5wXzLLrWG8NB-11">
          <mxGeometry relative="1" as="geometry" />
        </mxCell>
        <mxCell id="S8cyLzOC5wXzLLrWG8NB-7" value="Bylo stiknuto&lt;br&gt;tlačítko UP&lt;br&gt;nebo DOWN&lt;br&gt;na displaji?" style="rhombus;whiteSpace=wrap;html=1;rounded=1;arcSize=14;strokeWidth=2;" vertex="1" parent="WIyWlLk6GJQsqaUBKTNV-1">
          <mxGeometry x="345" y="330" width="137" height="130" as="geometry" />
        </mxCell>
        <mxCell id="S8cyLzOC5wXzLLrWG8NB-13" style="edgeStyle=orthogonalEdgeStyle;rounded=0;orthogonalLoop=1;jettySize=auto;html=1;entryX=0.5;entryY=0;entryDx=0;entryDy=0;" edge="1" parent="WIyWlLk6GJQsqaUBKTNV-1" source="S8cyLzOC5wXzLLrWG8NB-9" target="S8cyLzOC5wXzLLrWG8NB-11">
          <mxGeometry relative="1" as="geometry">
            <Array as="points">
              <mxPoint x="630" y="510" />
            </Array>
          </mxGeometry>
        </mxCell>
        <mxCell id="S8cyLzOC5wXzLLrWG8NB-9" value="Zvyš nebo sniž o jedno proměnnou&lt;br&gt;counter[0]" style="whiteSpace=wrap;html=1;rounded=1;arcSize=14;strokeWidth=2;" vertex="1" parent="WIyWlLk6GJQsqaUBKTNV-1">
          <mxGeometry x="570" y="365" width="120" height="60" as="geometry" />
        </mxCell>
        <mxCell id="S8cyLzOC5wXzLLrWG8NB-15" value="ANO" style="edgeStyle=orthogonalEdgeStyle;rounded=0;orthogonalLoop=1;jettySize=auto;html=1;" edge="1" parent="WIyWlLk6GJQsqaUBKTNV-1" source="S8cyLzOC5wXzLLrWG8NB-11" target="S8cyLzOC5wXzLLrWG8NB-14">
          <mxGeometry relative="1" as="geometry" />
        </mxCell>
        <mxCell id="S8cyLzOC5wXzLLrWG8NB-17" value="NE" style="edgeStyle=orthogonalEdgeStyle;rounded=0;orthogonalLoop=1;jettySize=auto;html=1;" edge="1" parent="WIyWlLk6GJQsqaUBKTNV-1" source="S8cyLzOC5wXzLLrWG8NB-11" target="S8cyLzOC5wXzLLrWG8NB-16">
          <mxGeometry relative="1" as="geometry" />
        </mxCell>
        <mxCell id="S8cyLzOC5wXzLLrWG8NB-11" value="Bylo stisknuto tlačítko&lt;br&gt;RIGHT na displaji?" style="rhombus;whiteSpace=wrap;html=1;rounded=1;arcSize=14;strokeWidth=2;" vertex="1" parent="WIyWlLk6GJQsqaUBKTNV-1">
          <mxGeometry x="346" y="510" width="136" height="130" as="geometry" />
        </mxCell>
        <mxCell id="S8cyLzOC5wXzLLrWG8NB-18" style="edgeStyle=orthogonalEdgeStyle;rounded=0;orthogonalLoop=1;jettySize=auto;html=1;entryX=0.5;entryY=0;entryDx=0;entryDy=0;" edge="1" parent="WIyWlLk6GJQsqaUBKTNV-1" source="S8cyLzOC5wXzLLrWG8NB-14" target="S8cyLzOC5wXzLLrWG8NB-16">
          <mxGeometry relative="1" as="geometry">
            <Array as="points">
              <mxPoint x="630" y="700" />
            </Array>
          </mxGeometry>
        </mxCell>
        <mxCell id="S8cyLzOC5wXzLLrWG8NB-14" value="Vykonej daný oslužný program, kterému náleží hodnota counter[0]" style="whiteSpace=wrap;html=1;rounded=1;arcSize=14;strokeWidth=2;" vertex="1" parent="WIyWlLk6GJQsqaUBKTNV-1">
          <mxGeometry x="570" y="545" width="120" height="60" as="geometry" />
        </mxCell>
        <mxCell id="S8cyLzOC5wXzLLrWG8NB-20" value="ANO" style="edgeStyle=orthogonalEdgeStyle;rounded=0;orthogonalLoop=1;jettySize=auto;html=1;" edge="1" parent="WIyWlLk6GJQsqaUBKTNV-1" source="S8cyLzOC5wXzLLrWG8NB-16" target="S8cyLzOC5wXzLLrWG8NB-19">
          <mxGeometry relative="1" as="geometry" />
        </mxCell>
        <mxCell id="S8cyLzOC5wXzLLrWG8NB-22" value="NE" style="edgeStyle=orthogonalEdgeStyle;rounded=0;orthogonalLoop=1;jettySize=auto;html=1;" edge="1" parent="WIyWlLk6GJQsqaUBKTNV-1" source="S8cyLzOC5wXzLLrWG8NB-16" target="S8cyLzOC5wXzLLrWG8NB-21">
          <mxGeometry relative="1" as="geometry" />
        </mxCell>
        <mxCell id="S8cyLzOC5wXzLLrWG8NB-16" value="Byla změněna&amp;nbsp;&lt;br&gt;hodnota counter[0]" style="rhombus;whiteSpace=wrap;html=1;rounded=1;arcSize=14;strokeWidth=2;" vertex="1" parent="WIyWlLk6GJQsqaUBKTNV-1">
          <mxGeometry x="346" y="700" width="136" height="115" as="geometry" />
        </mxCell>
        <mxCell id="S8cyLzOC5wXzLLrWG8NB-26" style="edgeStyle=orthogonalEdgeStyle;rounded=0;orthogonalLoop=1;jettySize=auto;html=1;entryX=0.5;entryY=0;entryDx=0;entryDy=0;" edge="1" parent="WIyWlLk6GJQsqaUBKTNV-1" source="S8cyLzOC5wXzLLrWG8NB-19" target="S8cyLzOC5wXzLLrWG8NB-21">
          <mxGeometry relative="1" as="geometry">
            <Array as="points">
              <mxPoint x="630" y="850" />
              <mxPoint x="414" y="850" />
            </Array>
          </mxGeometry>
        </mxCell>
        <mxCell id="S8cyLzOC5wXzLLrWG8NB-19" value="Uprav výpis na displaji" style="whiteSpace=wrap;html=1;rounded=1;arcSize=14;strokeWidth=2;" vertex="1" parent="WIyWlLk6GJQsqaUBKTNV-1">
          <mxGeometry x="570" y="727.5" width="120" height="60" as="geometry" />
        </mxCell>
        <mxCell id="S8cyLzOC5wXzLLrWG8NB-24" value="" style="edgeStyle=orthogonalEdgeStyle;rounded=0;orthogonalLoop=1;jettySize=auto;html=1;" edge="1" parent="WIyWlLk6GJQsqaUBKTNV-1" source="S8cyLzOC5wXzLLrWG8NB-21" target="S8cyLzOC5wXzLLrWG8NB-23">
          <mxGeometry relative="1" as="geometry" />
        </mxCell>
        <mxCell id="S8cyLzOC5wXzLLrWG8NB-21" value="Proveď aktualizaci času" style="whiteSpace=wrap;html=1;rounded=1;arcSize=14;strokeWidth=2;" vertex="1" parent="WIyWlLk6GJQsqaUBKTNV-1">
          <mxGeometry x="354" y="860" width="120" height="60" as="geometry" />
        </mxCell>
        <mxCell id="S8cyLzOC5wXzLLrWG8NB-25" style="edgeStyle=orthogonalEdgeStyle;rounded=0;orthogonalLoop=1;jettySize=auto;html=1;entryX=0;entryY=0.5;entryDx=0;entryDy=0;" edge="1" parent="WIyWlLk6GJQsqaUBKTNV-1" source="S8cyLzOC5wXzLLrWG8NB-23" target="S8cyLzOC5wXzLLrWG8NB-3">
          <mxGeometry relative="1" as="geometry">
            <Array as="points">
              <mxPoint x="414" y="1020" />
              <mxPoint x="230" y="1020" />
              <mxPoint x="230" y="270" />
            </Array>
          </mxGeometry>
        </mxCell>
        <mxCell id="S8cyLzOC5wXzLLrWG8NB-23" value="Zkontorluj zda nemají být automaticky zamknuty nebo odemknuty dvěře" style="whiteSpace=wrap;html=1;rounded=1;arcSize=14;strokeWidth=2;" vertex="1" parent="WIyWlLk6GJQsqaUBKTNV-1">
          <mxGeometry x="354" y="950" width="120" height="60" as="geometry" />
        </mxCell>
      </root>
    </mxGraphModel>
  </diagram>
</mxfile>
